<svg xmlns="http://www.w3.org/2000/svg" width="1200" height="600" viewBox="0 0 1200 600">
<rect width="100%" height="100%" fill="#ffffff"/>
<line x1="120" y1="480" x2="1080" y2="480" stroke="#222" stroke-width="1.5"/>
<line x1="120" y1="120" x2="120" y2="480" stroke="#222" stroke-width="1.5"/>
<line x1="114" y1="480.0" x2="120" y2="480.0" stroke="#222" stroke-width="1"/>
<text x="110" y="484.0" text-anchor="end" font-size="12" fill="#333">0</text>
<line x1="114" y1="408.0" x2="120" y2="408.0" stroke="#222" stroke-width="1"/>
<text x="110" y="412.0" text-anchor="end" font-size="12" fill="#333">1519</text>
<line x1="114" y1="336.0" x2="120" y2="336.0" stroke="#222" stroke-width="1"/>
<text x="110" y="340.0" text-anchor="end" font-size="12" fill="#333">3038</text>
<line x1="114" y1="264.0" x2="120" y2="264.0" stroke="#222" stroke-width="1"/>
<text x="110" y="268.0" text-anchor="end" font-size="12" fill="#333">4557</text>
<line x1="114" y1="192.0" x2="120" y2="192.0" stroke="#222" stroke-width="1"/>
<text x="110" y="196.0" text-anchor="end" font-size="12" fill="#333">6076</text>
<line x1="114" y1="120.0" x2="120" y2="120.0" stroke="#222" stroke-width="1"/>
<text x="110" y="124.0" text-anchor="end" font-size="12" fill="#333">7595</text>
<rect x="140" y="478.48321263989465" width="120" height="1.5167873601053323" fill="#2A9D8F" />
<rect x="140" y="475.449637919684" width="120" height="3.0335747202106647" fill="#E76F51" />
<rect x="140" y="473.74325213956547" width="120" height="1.706385780118499" fill="#264653" />
<rect x="140" y="466.1119157340355" width="120" height="7.631336405529954" fill="#E9C46A" />
<text x="200.0" y="504" text-anchor="middle" font-size="12" fill="#222">MessageA.Classic</text>
<text x="200.0" y="454.1119157340355" text-anchor="middle" font-size="10" fill="#222">293B</text>
<rect x="320" y="478.48321263989465" width="120" height="1.5167873601053323" fill="#2A9D8F" />
<rect x="320" y="475.449637919684" width="120" height="3.0335747202106647" fill="#E76F51" />
<rect x="320" y="473.74325213956547" width="120" height="1.706385780118499" fill="#264653" />
<rect x="320" y="464.92692560895324" width="120" height="8.816326530612244" fill="#E9C46A" />
<text x="380.0" y="504" text-anchor="middle" font-size="12" fill="#222">MessageB.Classic</text>
<text x="380.0" y="452.92692560895324" text-anchor="middle" font-size="10" fill="#222">318B</text>
<rect x="500" y="428.4292297564187" width="120" height="51.5707702435813" fill="#2A9D8F" />
<rect x="500" y="271.58393680052666" width="120" height="156.84529295589203" fill="#E76F51" />
<rect x="500" y="178.8703094140882" width="120" height="92.71362738643845" fill="#264653" />
<rect x="500" y="171.5707702435813" width="120" height="7.299539170506913" fill="#E9C46A" />
<text x="560.0" y="504" text-anchor="middle" font-size="12" fill="#222">MessageA.PQC</text>
<text x="560.0" y="159.5707702435813" text-anchor="middle" font-size="10" fill="#222">6507B</text>
<rect x="680" y="428.4292297564187" width="120" height="51.5707702435813" fill="#2A9D8F" />
<rect x="680" y="271.58393680052666" width="120" height="156.84529295589203" fill="#E76F51" />
<rect x="680" y="178.8703094140882" width="120" height="92.71362738643845" fill="#264653" />
<rect x="680" y="120.0" width="120" height="58.87030941408822" fill="#E9C46A" />
<text x="740.0" y="504" text-anchor="middle" font-size="12" fill="#222">MessageB.PQC</text>
<text x="740.0" y="156" text-anchor="middle" font-size="10" fill="#222">7595B</text>
<rect x="920" y="140" width="12" height="12" fill="#2A9D8F" />
<text x="938" y="150" font-size="12" fill="#222">KeyShare</text>
<rect x="920" y="158" width="12" height="12" fill="#E76F51" />
<text x="938" y="168" font-size="12" fill="#222">Signature</text>
<rect x="920" y="176" width="12" height="12" fill="#264653" />
<text x="938" y="186" font-size="12" fill="#222">Identity</text>
<rect x="920" y="194" width="12" height="12" fill="#E9C46A" />
<text x="938" y="204" font-size="12" fill="#222">Overhead</text>
<text x="600.0" y="74" text-anchor="middle" font-size="16" fill="#111">Handshake Message Size Breakdown</text>
<text x="600.0" y="582" text-anchor="middle" font-size="12" fill="#333">Message type</text>
<text x="20" y="300.0" text-anchor="middle" font-size="12" fill="#333" transform="rotate(-90 20 300.0)">Bytes</text>
</svg>