<svg xmlns="http://www.w3.org/2000/svg" width="980" height="440" viewBox="0 0 980 440">
<rect width="100%" height="100%" fill="#ffffff"/>
<line x1="80" y1="360" x2="900" y2="360" stroke="#111" stroke-width="1.5"/>
<line x1="80" y1="80" x2="80" y2="360" stroke="#111" stroke-width="1.5"/>
<line x1="74" y1="360.0" x2="80" y2="360.0" stroke="#111" stroke-width="1"/>
<line x1="74" y1="304.0" x2="80" y2="304.0" stroke="#111" stroke-width="1"/>
<line x1="74" y1="248.0" x2="80" y2="248.0" stroke="#111" stroke-width="1"/>
<line x1="74" y1="192.0" x2="80" y2="192.0" stroke="#111" stroke-width="1"/>
<line x1="74" y1="136.0" x2="80" y2="136.0" stroke="#111" stroke-width="1"/>
<line x1="74" y1="80.0" x2="80" y2="80.0" stroke="#111" stroke-width="1"/>
<text x="70" y="84.0" text-anchor="end" font-size="12" fill="#333">3000</text>
<rect x="114.16666666666666" y="80.0" width="68.33333333333333" height="280.0" fill="#4e79a7"/>
<rect x="192.5" y="360.0" width="68.33333333333333" height="0.0" fill="#f28e2b"/>
<text x="148.33333333333331" y="386" text-anchor="middle" font-size="12" fill="#333">Drop/Timeout</text>
<rect x="319.1666666666667" y="80.0" width="68.33333333333333" height="280.0" fill="#4e79a7"/>
<rect x="397.5" y="360.0" width="68.33333333333333" height="0.0" fill="#f28e2b"/>
<text x="353.33333333333337" y="386" text-anchor="middle" font-size="12" fill="#333">Corrupt/WrongSig</text>
<rect x="524.1666666666666" y="360.0" width="68.33333333333333" height="0.0" fill="#4e79a7"/>
<rect x="602.5" y="360.0" width="68.33333333333333" height="0.0" fill="#f28e2b"/>
<text x="558.3333333333333" y="386" text-anchor="middle" font-size="12" fill="#333">Ordering Benign</text>
<rect x="729.1666666666666" y="360.0" width="68.33333333333333" height="0.0" fill="#4e79a7"/>
<rect x="807.5" y="277.49333333333334" width="68.33333333333333" height="82.50666666666666" fill="#f28e2b"/>
<text x="763.3333333333333" y="386" text-anchor="middle" font-size="12" fill="#333">PQC Unavailable</text>
<rect x="720" y="70" width="12" height="12" fill="#4e79a7"/>
<text x="738" y="80" font-size="12" fill="#333">E_handshakeFailed</text>
<rect x="720" y="88" width="12" height="12" fill="#f28e2b"/>
<text x="738" y="98" font-size="12" fill="#333">E_cryptoDowngrade</text>
<text x="490.0" y="46" text-anchor="middle" font-size="16" fill="#111">Failure-Mode Histogram (Observability)</text>
<text x="490.0" y="422" text-anchor="middle" font-size="12" fill="#333">Fault class</text>
<text x="20" y="220.0" text-anchor="middle" font-size="12" fill="#333" transform="rotate(-90 20 220.0)">Event count (n=1000 per scenario)</text>
</svg>