<svg xmlns="http://www.w3.org/2000/svg" width="1200" height="520" viewBox="0 0 1200 520">
  <defs>
    <style>
      .title { font-family: Helvetica, Arial, sans-serif; font-size: 22px; font-weight: 700; fill: #1d2a33; }
      .label { font-family: Helvetica, Arial, sans-serif; font-size: 12px; fill: #1d2a33; }
      .cellLabel { font-family: Helvetica, Arial, sans-serif; font-size: 11px; fill: #1d2a33; }
      .cell { fill: #f7f9fb; stroke: #1d2a33; stroke-width: 1.5; }
      .allow { fill: #e8f5e9; stroke: #1b5e20; stroke-width: 1.5; }
      .deny { fill: #fdecea; stroke: #b71c1c; stroke-width: 1.5; }
      .note { font-family: Helvetica, Arial, sans-serif; font-size: 12px; fill: #3b4a55; }
    </style>
  </defs>

  <rect width="100%" height="100%" fill="#ffffff"/>
  <text x="40" y="40" class="title">Downgrade Decision Matrix (Policy × Error)</text>

  <rect x="40" y="80" width="1120" height="360" class="cell"/>

  <text x="70" y="110" class="label">Policy \\ Error</text>
  <text x="230" y="110" class="label">pqcUnavailable</text>
  <text x="410" y="110" class="label">suiteNotSupported</text>
  <text x="570" y="110" class="label">suiteNegFailed</text>
  <text x="770" y="110" class="label">timeout</text>
  <text x="860" y="110" class="label">invalidFormat</text>
  <text x="1010" y="110" class="label">invalidSig</text>

  <text x="70" y="190" class="label">default</text>
  <rect x="210" y="150" width="160" height="60" class="allow"/>
  <text x="290" y="175" text-anchor="middle" class="cellLabel">
    <tspan x="290" dy="0">Allow</tspan>
    <tspan x="290" dy="14">E_cryptoDowngrade</tspan>
  </text>
  <rect x="380" y="150" width="160" height="60" class="allow"/>
  <text x="460" y="175" text-anchor="middle" class="cellLabel">
    <tspan x="460" dy="0">Allow</tspan>
    <tspan x="460" dy="14">E_cryptoDowngrade</tspan>
  </text>
  <rect x="540" y="150" width="180" height="60" class="allow"/>
  <text x="630" y="175" text-anchor="middle" class="cellLabel">
    <tspan x="630" dy="0">Allow</tspan>
    <tspan x="630" dy="14">E_cryptoDowngrade</tspan>
  </text>
  <rect x="730" y="150" width="100" height="60" class="deny"/>
  <text x="780" y="185" text-anchor="middle" class="cellLabel">Deny</text>
  <rect x="840" y="150" width="150" height="60" class="deny"/>
  <text x="915" y="185" text-anchor="middle" class="cellLabel">Deny</text>
  <rect x="1000" y="150" width="160" height="60" class="deny"/>
  <text x="1080" y="185" text-anchor="middle" class="cellLabel">Deny</text>

  <text x="70" y="300" class="label">strictPQC</text>
  <rect x="210" y="260" width="160" height="60" class="deny"/>
  <text x="290" y="295" text-anchor="middle" class="cellLabel">Deny</text>
  <rect x="380" y="260" width="160" height="60" class="deny"/>
  <text x="460" y="295" text-anchor="middle" class="cellLabel">Deny</text>
  <rect x="540" y="260" width="180" height="60" class="deny"/>
  <text x="630" y="295" text-anchor="middle" class="cellLabel">Deny</text>
  <rect x="730" y="260" width="100" height="60" class="deny"/>
  <text x="780" y="295" text-anchor="middle" class="cellLabel">Deny</text>
  <rect x="840" y="260" width="150" height="60" class="deny"/>
  <text x="915" y="295" text-anchor="middle" class="cellLabel">Deny</text>
  <rect x="1000" y="260" width="160" height="60" class="deny"/>
  <text x="1080" y="295" text-anchor="middle" class="cellLabel">Deny</text>

  <text x="40" y="470" class="note">Whitelist sources: TwoAttemptHandshakeManager.shouldAllowFallback (pqcUnavailable, suiteNotSupported, suiteNegFailed).</text>
</svg>
