<svg xmlns="http://www.w3.org/2000/svg" width="840" height="440" viewBox="0 0 840 440">
<rect width="100%" height="100%" fill="#ffffff"/>
<line x1="70" y1="370" x2="770" y2="370" stroke="#111" stroke-width="1.5"/>
<line x1="70" y1="70" x2="70" y2="370" stroke="#111" stroke-width="1.5"/>
<line x1="64" y1="370.0" x2="70" y2="370.0" stroke="#111" stroke-width="1"/>
<text x="60" y="374.0" text-anchor="end" font-size="11" fill="#333">0.0</text>
<line x1="64" y1="310.0" x2="70" y2="310.0" stroke="#111" stroke-width="1"/>
<text x="60" y="314.0" text-anchor="end" font-size="11" fill="#333">4.1</text>
<line x1="64" y1="250.0" x2="70" y2="250.0" stroke="#111" stroke-width="1"/>
<text x="60" y="254.0" text-anchor="end" font-size="11" fill="#333">8.1</text>
<line x1="64" y1="190.0" x2="70" y2="190.0" stroke="#111" stroke-width="1"/>
<text x="60" y="194.0" text-anchor="end" font-size="11" fill="#333">12.2</text>
<line x1="64" y1="130.0" x2="70" y2="130.0" stroke="#111" stroke-width="1"/>
<text x="60" y="134.0" text-anchor="end" font-size="11" fill="#333">16.2</text>
<line x1="64" y1="70.0" x2="70" y2="70.0" stroke="#111" stroke-width="1"/>
<text x="60" y="74.0" text-anchor="end" font-size="11" fill="#333">20.3</text>
<rect x="128.33333333333334" y="344.8652305176222" width="58.333333333333336" height="25.134769482377806" fill="#2E86AB"/>
<rect x="194.66666666666669" y="342.20994420991593" width="58.333333333333336" height="27.790055790084068" fill="#F6C85F"/>
<rect x="261.0" y="338.0151757381245" width="58.333333333333336" height="31.984824261875474" fill="#F5703C"/>
<text x="186.66666666666669" y="394" text-anchor="middle" font-size="12" fill="#333">Classic</text>
<rect x="361.6666666666667" y="295.5995579817072" width="58.333333333333336" height="74.40044201829278" fill="#2E86AB"/>
<rect x="428.0" y="266.11653105667057" width="58.333333333333336" height="103.88346894332943" fill="#F6C85F"/>
<rect x="494.33333333333337" y="236.72912077699718" width="58.333333333333336" height="133.27087922300282" fill="#F5703C"/>
<text x="420.0" y="394" text-anchor="middle" font-size="12" fill="#333">liboqs PQC</text>
<rect x="595.0000000000001" y="225.465085962393" width="58.333333333333336" height="144.534914037607" fill="#2E86AB"/>
<rect x="661.3333333333335" y="133.76527071453484" width="58.333333333333336" height="236.23472928546516" fill="#F6C85F"/>
<rect x="727.6666666666667" y="70.0" width="58.333333333333336" height="300.0" fill="#F5703C"/>
<text x="653.3333333333335" y="394" text-anchor="middle" font-size="12" fill="#333">CryptoKit PQC</text>
<rect x="630" y="60" width="12" height="12" fill="#2E86AB"/>
<text x="648" y="70" font-size="11" fill="#333">p50</text>
<rect x="630" y="78" width="12" height="12" fill="#F6C85F"/>
<text x="648" y="88" font-size="11" fill="#333">p95</text>
<rect x="630" y="96" width="12" height="12" fill="#F5703C"/>
<text x="648" y="106" font-size="11" fill="#333">p99</text>
<text x="420.0" y="40" text-anchor="middle" font-size="15" fill="#111">Handshake Latency Percentiles (ms)</text>
</svg>